<?xml version="1.0" encoding="utf-8"?>
<!-- Uploaded to: SVG Repo, www.svgrepo.com, Generator: SVG Repo Mixer Tools -->
<svg width="800px" height="800px" viewBox="0 0 1024 1024" class="icon" style="vertical-align: middle;fill: #000000;overflow: hidden;" version="1.1" xmlns="http://www.w3.org/2000/svg"><path d="M131.5328 369.0496l114.8416-187.0848c6.3488-10.2912 17.3568-16.5376 29.184-16.5376h538.8288c11.776 0 22.7328 6.1952 29.0816 16.384l116.224 187.1872c8.0384 13.0048 7.0656 29.8496-2.4576 41.728l-377.9584 472.576a42.72128 42.72128 0 0 1-67.1744 0L134.0928 410.624c-9.472-11.8272-10.496-28.6208-2.56-41.5744z" fill="#F2C336" /><path d="M800.3072 198.8608l29.0816 45.8752 29.8496-45.8752-29.4912-41.728z" fill="#E8A200" /><path d="M134.0928 410.624l372.992 466.3296-154.112-487.3728-226.56 1.6896c0.6144 6.9632 3.1744 13.7216 7.68 19.3536zM579.328 883.3024l377.9584-472.576a35.95264 35.95264 0 0 0 7.68-19.6096l-279.2448-9.8304-159.4368 513.536a42.58816 42.58816 0 0 0 53.0432-11.52z" fill="#F58200" /><path d="M959.744 368.9984l-102.8096-165.5808-120.8832 180.992h-59.5968l-128.3072-195.8912-127.4368 188.928h-65.024L238.2336 195.2256 131.5328 369.0496a36.38784 36.38784 0 0 0-5.12 22.4256l838.5536-6.9632a35.84 35.84 0 0 0-5.2224-15.5136z" fill="#F58200" /><path d="M859.2384 198.8608l-29.8496 45.8752 83.968 136.6016-367.6672 451.072-11.7248 81.8688 442.4704-522.8032-2.816-25.3952z" fill="#F46800" /><path d="M223.0272 562.2784a15.37536 15.37536 0 0 0-21.7088-1.0752 15.37536 15.37536 0 0 0-1.0752 21.7088l8.3456 9.216a15.36 15.36 0 0 0 11.3664 5.0176c3.6864 0 7.3728-1.3312 10.2912-3.9936a15.37536 15.37536 0 0 0 1.0752-21.7088l-8.2944-9.1648z" fill="#333333" /><path d="M980.6848 350.1568l-125.7984-196.864c-9.728-15.2576-26.368-24.32-44.4416-24.32H227.1232c-18.176 0-34.8672 9.1648-44.5952 24.576l-23.4496 37.12c-4.5056 7.168-2.4064 16.64 4.7616 21.1968 7.168 4.5568 16.64 2.4064 21.1968-4.7616l21.3504-33.792 119.04 192.6656H84.6336l66.816-105.6768c4.5056-7.168 2.4064-16.64-4.7616-21.1968-7.168-4.5056-16.64-2.4064-21.1968 4.7616L58.2144 350.2592c-12.1856 19.3024-10.6496 44.0832 3.6864 61.4912l90.8288 114.688a15.29344 15.29344 0 0 0 21.5552 2.5088c6.656-5.2736 7.7824-14.9504 2.5088-21.5552L89.1392 396.6976H341.504L483.4304 875.52l-207.104-249.4976a15.34976 15.34976 0 0 0-23.6032 19.6096l218.6752 263.4752c10.752 13.056 26.112 20.992 42.752 22.4768 1.6384 0.3072 3.328 0.5632 5.0176 0.5632h0.3072c1.5872 0 3.1232-0.2048 4.608-0.512 16.9984-1.2288 32.768-9.216 43.7248-22.528l409.1904-497.0496c14.5408-17.664 16.0768-42.5472 3.6864-61.9008z m-26.3168 15.8208h-252.9792l129.28-193.5872 123.6992 193.5872z m-435.4048 521.4208L373.504 396.6976h279.3472l-133.888 490.7008z m153.9072-534.0672l-125.0816-193.6896h254.4128l-129.3312 193.6896zM489.984 159.6928L353.792 353.4336 234.0864 159.6928H489.984z m29.0304 12.0832l125.3888 194.2016H382.5152l136.4992-194.2016z m34.2528 706.6624l131.4816-481.7408h265.1136l-396.5952 481.7408z" fill="#333333" /><path d="M343.8592 630.9888c-3.84 0-7.6288-1.6896-10.1376-4.9664l-12.4928-16.128a12.8512 12.8512 0 0 1 2.304-17.9712 12.8512 12.8512 0 0 1 17.9712 2.304l12.4928 16.128a12.8512 12.8512 0 0 1-2.304 17.9712c-2.3552 1.792-5.12 2.6624-7.8336 2.6624zM301.312 569.344c-3.84 0-7.6288-1.6896-10.1376-4.9664L206.2848 454.4512a12.8512 12.8512 0 0 1 2.304-17.9712 12.8512 12.8512 0 0 1 17.9712 2.304l84.8896 109.9264a12.8512 12.8512 0 0 1-2.304 17.9712c-2.3552 1.792-5.12 2.6624-7.8336 2.6624zM205.568 342.272c-2.3552 0-4.6592-0.6144-6.8096-1.9456a12.83584 12.83584 0 0 1-4.0448-17.664l26.4704-42.1376a12.83584 12.83584 0 0 1 17.664-4.0448c5.9904 3.7376 7.7824 11.6736 4.0448 17.664l-26.4704 42.1376c-2.4064 3.84-6.5536 5.9904-10.8544 5.9904z" fill="#FFFFFF" /><path d="M809.8816 346.9312c-2.3552 0-4.6592-0.6144-6.8096-1.9456a12.83584 12.83584 0 0 1-4.0448-17.664l26.4704-42.1376a12.83584 12.83584 0 0 1 17.664-4.0448c5.9904 3.7376 7.7824 11.6736 4.0448 17.664l-26.4704 42.1376c-2.4576 3.84-6.6048 5.9904-10.8544 5.9904z" fill="#FFFFFF" /><path d="M493.824 341.8112c-2.3552 0-4.6592-0.6144-6.8096-1.9456a12.83584 12.83584 0 0 1-4.0448-17.664l26.4704-42.1376a12.83584 12.83584 0 0 1 17.664-4.0448c5.9904 3.7376 7.7824 11.6736 4.0448 17.664l-26.4704 42.1376c-2.4576 3.84-6.6048 5.9904-10.8544 5.9904z" fill="#FFFFFF" /></svg>